# OBJ generated by ONSHAPE BY PTC INC, 1.189 Units = meters
mtllib TestBasePCB.mtl
g Pad 1
v -0.00635 0.0889 0.00635 
v -0.00635 0.0889 0.00254 
v -0.127 0.0889 0.00254 
v -0.127 0.0889 0.00635 
v -0.127 0.00635 0.00254 
v -0.127 0.00635 0.00635 
v -0.00635 0.00635 0.00254 
v -0.00635 0.00635 0.00635 
vn 0 1 0 
vn -1 0 0 
vn 0 -1 0 
vn 1 6.30426e-17 0 
vn 0 0 1 
vn 0 0 -1 
usemtl 0.721569_0.450980_0.200000_0.000000_0.000000
o mesh0
f 1//1 2//1 3//1 
f 3//1 4//1 1//1 
o mesh1
f 4//2 3//2 5//2 
f 5//2 6//2 4//2 
o mesh2
f 6//3 5//3 7//3 
f 7//3 8//3 6//3 
o mesh3
f 8//4 7//4 2//4 
f 2//4 1//4 8//4 
o mesh4
f 8//5 1//5 4//5 
f 4//5 6//5 8//5 
o mesh5
f 5//6 3//6 2//6 
f 2//6 7//6 5//6 
g Pad 2
v -0.127 -0.00635 0.00635 
v -0.127 -0.00635 0.00254 
v -0.127 -0.0889 0.00254 
v -0.127 -0.0889 0.00635 
v -0.00635 -0.0889 0.00254 
v -0.00635 -0.0889 0.00635 
v -0.00635 -0.00635 0.00254 
v -0.00635 -0.00635 0.00635 
vn -1 0 0 
vn 0 -1 0 
vn 1 1.89128e-16 0 
vn 0 1 0 
vn 0 0 1 
vn 0 0 -1 
o mesh6
f 9//7 10//7 11//7 
f 11//7 12//7 9//7 
o mesh7
f 12//8 11//8 13//8 
f 13//8 14//8 12//8 
o mesh8
f 14//9 13//9 15//9 
f 15//9 16//9 14//9 
o mesh9
f 16//10 15//10 10//10 
f 10//10 9//10 16//10 
o mesh10
f 16//11 9//11 12//11 
f 12//11 14//11 16//11 
o mesh11
f 13//12 11//12 10//12 
f 10//12 15//12 13//12 
g PCB
v -0.1524 -0.1143 0.00508 
v -0.1524 -0.1143 0 
v 0.1524 -0.1143 0 
v 0.1524 -0.1143 0.00508 
v 0.1524 0.1143 0 
v 0.1524 0.1143 0.00508 
v -0.1524 0.1143 0 
v -0.1524 0.1143 0.00508 
v -0.127 0.0889 0.00508 
v -0.00635 0.0889 0.00508 
v -0.127 -0.00635 0.00508 
v -0.127 0.00635 0.00508 
v -0.00635 0.00635 0.00508 
v 0.00635 0.00635 0.00508 
v 0.127 0.0889 0.00508 
v 0.127 0.00635 0.00508 
v 0.00635 0.0889 0.00508 
v -0.00635 -0.00635 0.00508 
v -0.127 -0.0889 0.00508 
v -0.00635 -0.0889 0.00508 
v 0.00635 -0.0889 0.00508 
v 0.00635 -0.00635 0.00508 
v 0.127 -0.0889 0.00508 
v 0.127 -0.00635 0.00508 
v -0.00635 0.0889 0.00254 
v -0.127 0.0889 0.00254 
v -0.127 0.00635 0.00254 
v -0.00635 0.00635 0.00254 
v -0.127 -0.00635 0.00254 
v -0.127 -0.0889 0.00254 
v -0.00635 -0.0889 0.00254 
v -0.00635 -0.00635 0.00254 
v 0.00635 -0.00635 0.00254 
v 0.00635 -0.0889 0.00254 
v 0.127 -0.0889 0.00254 
v 0.127 -0.00635 0.00254 
v 0.00635 0.00635 0.00254 
v 0.127 0.00635 0.00254 
v 0.127 0.0889 0.00254 
v 0.00635 0.0889 0.00254 
vn 9.10616e-17 -1 0 
vn 1 0 0 
vn -9.10616e-17 1 0 
vn -1 0 0 
vn 0 0 -1 
vn 0 0 1 
vn 0 -1 0 
vn 1 0 0 
vn 0 1 0 
vn -1 -6.30426e-17 0 
vn 0 0 1 
vn 1 0 0 
vn 0 1 0 
vn -1 -1.89128e-16 0 
vn 0 -1 0 
vn 0 0 1 
vn 1 1.78621e-16 0 
vn 0 1 0 
vn -1 0 0 
vn 0 -1 0 
vn 0 0 1 
vn -1.22214e-16 1 0 
vn -1 0 0 
vn 1.15025e-16 -1 0 
vn 1 1.78621e-16 0 
vn 0 0 1 
usemtl 0.196078_0.439216_0.078431_0.000000_0.000000
o mesh12
f 17//13 18//13 19//13 
f 19//13 20//13 17//13 
o mesh13
f 20//14 19//14 21//14 
f 21//14 22//14 20//14 
o mesh14
f 22//15 21//15 23//15 
f 23//15 24//15 22//15 
o mesh15
f 24//16 23//16 18//16 
f 18//16 17//16 24//16 
o mesh16
f 21//17 19//17 18//17 
f 18//17 23//17 21//17 
o mesh17
f 24//18 25//18 26//18 
f 24//18 27//18 28//18 
f 28//18 25//18 24//18 
f 29//18 28//18 27//18 
f 26//18 29//18 30//18 
f 22//18 31//18 32//18 
f 22//18 26//18 33//18 
f 27//18 34//18 29//18 
f 30//18 33//18 26//18 
f 33//18 31//18 22//18 
f 29//18 34//18 30//18 
f 26//18 22//18 24//18 
f 17//18 35//18 27//18 
f 27//18 24//18 17//18 
f 34//18 36//18 37//18 
f 32//18 30//18 38//18 
f 17//18 36//18 35//18 
f 37//18 38//18 34//18 
f 30//18 34//18 38//18 
f 36//18 17//18 37//18 
f 32//18 20//18 22//18 
f 20//18 39//18 37//18 
f 37//18 17//18 20//18 
f 20//18 32//18 40//18 
f 40//18 39//18 20//18 
f 38//18 40//18 32//18 
o mesh18
f 41//19 26//19 25//19 
f 25//19 42//19 41//19 
o mesh19
f 42//20 25//20 28//20 
f 28//20 43//20 42//20 
o mesh20
f 43//21 28//21 29//21 
f 29//21 44//21 43//21 
o mesh21
f 44//22 29//22 26//22 
f 26//22 41//22 44//22 
o mesh22
f 44//23 41//23 42//23 
f 42//23 43//23 44//23 
o mesh23
f 45//24 27//24 35//24 
f 35//24 46//24 45//24 
o mesh24
f 46//25 35//25 36//25 
f 36//25 47//25 46//25 
o mesh25
f 47//26 36//26 34//26 
f 34//26 48//26 47//26 
o mesh26
f 48//27 34//27 27//27 
f 27//27 45//27 48//27 
o mesh27
f 48//28 45//28 46//28 
f 46//28 47//28 48//28 
o mesh28
f 49//29 38//29 37//29 
f 37//29 50//29 49//29 
o mesh29
f 50//30 37//30 39//30 
f 39//30 51//30 50//30 
o mesh30
f 51//31 39//31 40//31 
f 40//31 52//31 51//31 
o mesh31
f 52//32 40//32 38//32 
f 38//32 49//32 52//32 
o mesh32
f 52//33 49//33 50//33 
f 50//33 51//33 52//33 
o mesh33
f 53//34 30//34 32//34 
f 32//34 54//34 53//34 
o mesh34
f 54//35 32//35 31//35 
f 31//35 55//35 54//35 
o mesh35
f 55//36 31//36 33//36 
f 33//36 56//36 55//36 
o mesh36
f 56//37 33//37 30//37 
f 30//37 53//37 56//37 
o mesh37
f 56//38 53//38 54//38 
f 54//38 55//38 56//38 
g Pad 3
v 0.00635 -0.00635 0.00635 
v 0.00635 -0.00635 0.00254 
v 0.00635 -0.0889 0.00254 
v 0.00635 -0.0889 0.00635 
v 0.127 -0.0889 0.00254 
v 0.127 -0.0889 0.00635 
v 0.127 -0.00635 0.00254 
v 0.127 -0.00635 0.00635 
vn -1 -1.78621e-16 0 
vn 0 -1 0 
vn 1 0 0 
vn 0 1 0 
vn 0 0 1 
vn 0 0 -1 
usemtl 0.721569_0.450980_0.200000_0.000000_0.000000
o mesh38
f 57//39 58//39 59//39 
f 59//39 60//39 57//39 
o mesh39
f 60//40 59//40 61//40 
f 61//40 62//40 60//40 
o mesh40
f 62//41 61//41 63//41 
f 63//41 64//41 62//41 
o mesh41
f 64//42 63//42 58//42 
f 58//42 57//42 64//42 
o mesh42
f 64//43 57//43 60//43 
f 60//43 62//43 64//43 
o mesh43
f 61//44 59//44 58//44 
f 58//44 63//44 61//44 
g Part 4
v 0.00635 0.00635 0.00635 
v 0.00635 0.00635 0.00254 
v 0.127 0.00635 0.00254 
v 0.127 0.00635 0.00635 
v 0.127 0.0889 0.00254 
v 0.127 0.0889 0.00635 
v 0.00635 0.0889 0.00254 
v 0.00635 0.0889 0.00635 
vn 1.22214e-16 -1 0 
vn 1 0 0 
vn -1.15025e-16 1 0 
vn -1 -1.78621e-16 0 
vn 0 0 1 
vn 0 0 -1 
o mesh44
f 65//45 66//45 67//45 
f 67//45 68//45 65//45 
o mesh45
f 68//46 67//46 69//46 
f 69//46 70//46 68//46 
o mesh46
f 70//47 69//47 71//47 
f 71//47 72//47 70//47 
o mesh47
f 72//48 71//48 66//48 
f 66//48 65//48 72//48 
o mesh48
f 72//49 65//49 68//49 
f 68//49 70//49 72//49 
o mesh49
f 69//50 67//50 66//50 
f 66//50 71//50 69//50 
